<?xml version="1.0" encoding="UTF-8" standalone="no"?>
<!DOCTYPE svg PUBLIC "-//W3C//DTD SVG 1.1//EN" "http://www.w3.org/Graphics/SVG/1.1/DTD/svg11.dtd">
<svg width="100%" height="100%" viewBox="0 0 1174 618" version="1.1" xmlns="http://www.w3.org/2000/svg" xmlns:xlink="http://www.w3.org/1999/xlink" xml:space="preserve" xmlns:serif="http://www.serif.com/" style="fill-rule:evenodd;clip-rule:evenodd;stroke-linejoin:round;stroke-miterlimit:2;">
    <path id="EyesAndMouth" d="M292.479,614.779C263.88,586.427 241.832,565.34 208.043,531.063C184.184,506.86 161.071,483.314 135.548,455.849C124.331,442.138 123.273,432.05 130.654,424.542L164.788,388.26C124.355,365.557 101.709,343.673 92.172,322.393C-10.683,272.54 -24.784,211.296 40.27,156.789C50.62,210.885 75.286,241.204 98.883,257.081L81.222,133.398C147.693,161.905 204.31,227.12 136.279,317.989C144.425,330.885 163.932,343.639 195.036,356.251L204.229,346.202L177.309,306.871C173.171,299.829 176.707,288.05 184.395,286.616L230.392,278.732L235.775,268.368L216.691,224.411C214.224,215.956 220.011,206.425 229.935,206.814L274.491,208.178L281.683,199.379L271.033,153.238C269.829,144.481 276.917,135.351 286.276,137.477L330.739,148.301L339.09,140.857L337.387,94.036C337.504,85.435 345.063,76.621 356.307,81.232L396.549,100.766L406.712,95.004L413.838,49.494C415.306,39.526 424.766,34.041 435.355,40.865L470.66,67.525L481.502,63.954L497.552,19.649C500.82,11.009 511.469,8.519 518.738,15.786L549.123,50.096L560.352,48.785L583.905,9.445C589.29,0.656 600.621,0.045 606.352,9.902L629.59,48.854L640.934,49.994L670.757,16.494C679.071,8.052 689.704,11.099 693.328,20.969L708.458,63.893L719.232,67.417L753.878,41.525C763.47,34.635 773.838,37.528 776.357,50.143L783.211,94.858L793.347,100.618L831.415,82.274C843.41,76.577 852.808,83.752 852.359,94.861L851.01,140.944L859.6,148.308L901.747,137.654C912.857,135.732 921.054,142.232 918.408,155.116L908.637,199.533L915.747,208.203L958.957,206.779C971.318,206.411 975.77,215.063 972.059,227.291L954.172,268.071L959.182,278.598L1003.03,286.096C1013.05,288.348 1017.05,299.197 1012.62,306.981L986.038,345.513L987.911,352.259C1000.08,343.483 1013.7,331.668 1028.8,316.707L1039.26,294.385C975.965,223.05 1001.4,155.921 1098.6,112.217C1087.07,142.212 1086.55,194.547 1088.47,229.897C1121.79,213.439 1143.82,180.103 1154.5,129.834C1190.96,186.454 1172.98,261.495 1073.79,318.735C1059.58,338.802 1043.22,358.68 1021.91,378.12L1069.49,413.167C1072.96,417.245 1074.88,425.64 1070.02,435.171C1055.3,460.408 1037.52,485.607 1020.18,510.99C997.206,544.62 960.27,592.62 947.427,616.041C945.572,600.176 953.541,573.898 973.183,535.247C983.67,508.221 996.658,480.197 1003.55,448.254C1008.87,436.982 1009.51,433.76 996.298,429.567C994.445,434.146 981.574,461.364 961.312,486.383C935.835,517.842 912.716,554.988 910.45,559.455C906.602,558.388 973.02,418.007 960.766,419.533C953.085,417.26 940.307,420.588 929.215,425.513C669.965,540.619 380.758,478.709 257.965,429.69C241.284,427.527 312.88,529.43 312.141,558.355C301.756,539.555 209.701,441.499 213.15,426.759C203.761,431.144 211.221,425.906 203.231,434.096C199.906,435.847 199.518,439.849 201.378,445.573C208.06,467.122 229.247,506.431 244.554,526.049C272.983,562.483 284.483,583.423 292.479,614.779ZM531.105,299.623C502.156,299.623 478.653,327.762 478.653,362.42C478.653,397.078 502.156,425.217 531.105,425.217C560.055,425.217 583.558,397.078 583.558,362.42C583.558,327.762 560.055,299.623 531.105,299.623ZM701,306.239C673.55,306.239 651.265,331.708 651.265,363.078C651.265,394.448 673.55,419.916 701,419.916C728.45,419.916 750.736,394.448 750.736,363.078C750.736,331.708 728.45,306.239 701,306.239ZM581.428,448.454C601.815,493.505 652.859,480.677 661.506,442.556L581.428,448.454Z" style="fill:rgb(242,94,13);"/>
</svg>
