<?xml version="1.0" encoding="UTF-8" standalone="no"?>
<!DOCTYPE svg PUBLIC "-//W3C//DTD SVG 1.1//EN" "http://www.w3.org/Graphics/SVG/1.1/DTD/svg11.dtd">
<svg width="100%" height="100%" viewBox="0 0 1174 618" version="1.1" xmlns="http://www.w3.org/2000/svg" xmlns:xlink="http://www.w3.org/1999/xlink" xml:space="preserve" xmlns:serif="http://www.serif.com/" style="fill-rule:evenodd;clip-rule:evenodd;stroke-linecap:round;stroke-linejoin:round;stroke-miterlimit:1.5;">
    <g id="FerrisOutline">
        <g id="EyesAndMouth">
            <g id="EyeRight" transform="matrix(1.00019,0,0,0.994149,152.298,-84.7158)">
                <ellipse cx="548.6" cy="450.429" rx="49.726" ry="57.173" style="fill:none;stroke:rgb(242,94,13);stroke-width:1px;"/>
            </g>
            <g id="EyeLeft" transform="matrix(1.05483,0,0,1.09836,-47.573,-132.314)">
                <ellipse cx="548.6" cy="450.429" rx="49.726" ry="57.173" style="fill:none;stroke:rgb(242,94,13);stroke-width:0.93px;"/>
            </g>
            <g id="Mouth" transform="matrix(1,0,0,1,-11.8844,-87.4628)">
                <path d="M593.313,535.917L673.39,530.019C664.744,568.139 613.7,580.968 593.313,535.917Z" style="fill:none;stroke:rgb(242,94,13);stroke-width:1px;"/>
            </g>
        </g>
        <g id="FerrisOutline1" serif:id="FerrisOutline" transform="matrix(1,0,0,1,-11.8844,-87.4628)">
            <path d="M304.364,702.242C275.765,673.89 253.717,652.802 219.927,618.525C196.069,594.322 172.956,570.777 147.432,543.312C136.215,529.601 135.158,519.513 142.539,512.005L176.672,475.723C136.239,453.02 113.594,431.136 104.057,409.855C1.201,360.002 -12.9,298.759 52.155,244.252C62.505,298.348 87.171,328.667 110.768,344.544L93.107,220.861C159.578,249.368 216.195,314.583 148.164,405.452C156.309,418.347 175.817,431.102 206.921,443.714L216.114,433.665L189.193,394.334C185.055,387.292 188.592,375.512 196.28,374.079L242.277,366.195L247.659,355.831L228.575,311.874C226.108,303.419 231.895,293.888 241.819,294.277L286.375,295.641L293.568,286.842L282.917,240.701C281.713,231.944 288.801,222.814 298.16,224.94L342.623,235.764L350.975,228.32L349.272,181.498C349.388,172.898 356.948,164.084 368.191,168.695L408.433,188.229L418.596,182.467L425.722,136.957C427.191,126.989 436.65,121.503 447.239,128.327L482.545,154.988L493.387,151.416L509.436,107.111C512.705,98.472 523.354,95.982 530.623,103.249L561.007,137.559L572.237,136.248L595.789,96.908C601.174,88.118 612.505,87.508 618.237,97.365L641.474,136.317L652.819,137.456L682.641,103.957C690.956,95.515 701.588,98.562 705.213,108.431L720.343,151.356L731.117,154.88L765.763,128.988C775.355,122.097 785.722,124.991 788.242,137.606L795.096,182.321L805.232,188.081L843.3,169.737C855.295,164.04 864.692,171.215 864.243,182.323L862.894,228.407L871.485,235.771L913.632,225.117C924.741,223.195 932.939,229.694 930.292,242.578L920.521,286.996L927.631,295.666L970.841,294.241C983.202,293.873 987.654,302.526 983.944,314.754L966.057,355.534L971.067,366.061L1014.92,373.559C1024.94,375.81 1028.93,386.66 1024.5,394.444L997.922,432.976L999.796,439.721C1011.97,430.946 1025.58,419.131 1040.69,404.169L1051.14,381.848C987.85,310.513 1013.29,243.384 1110.48,199.68C1098.96,229.675 1098.43,282.01 1100.35,317.36C1133.68,300.902 1155.7,267.566 1166.38,217.297C1202.85,273.917 1184.86,348.958 1085.68,406.198C1071.46,426.265 1055.1,446.143 1033.8,465.583L1081.38,500.63C1084.85,504.708 1086.76,513.103 1081.9,522.634C1067.18,547.871 1049.4,573.07 1032.07,598.453C1009.09,632.082 972.155,680.083 959.311,703.504C957.456,687.639 965.425,661.361 985.067,622.709C995.554,595.684 1008.54,567.66 1015.44,535.717C1020.76,524.445 1021.39,521.223 1008.18,517.03C1006.33,521.608 993.459,548.827 973.197,573.846C947.719,605.304 924.6,642.451 922.335,646.917C918.486,645.851 984.905,505.47 972.651,506.996C964.969,504.722 952.191,508.051 941.099,512.976C681.849,628.082 392.643,566.172 269.849,517.153C253.169,514.99 324.764,616.893 324.026,645.818C313.64,627.018 221.585,528.961 225.034,514.222C215.645,518.607 223.105,513.368 215.115,521.559C211.79,523.31 211.403,527.312 213.263,533.036C219.945,554.584 241.131,593.894 256.439,613.512C284.867,649.946 296.367,670.886 304.364,702.242Z" style="fill:none;stroke:rgb(242,94,13);stroke-width:1px;"/>
        </g>
    </g>
</svg>
